<?xml version="1.0" encoding="UTF-8"?>
<svg xmlns="http://www.w3.org/2000/svg" xmlns:xlink="http://www.w3.org/1999/xlink" width="144px" height="33px" viewBox="0 0 144 33" version="1.1">
<defs>
<linearGradient id="linear0" gradientUnits="userSpaceOnUse" x1="7.36338" y1="14.3381" x2="10.6108" y2="22.9095" >
<stop offset="0" style="stop-color:rgb(0%,89.019608%,90.196078%);stop-opacity:1;"/>
<stop offset="1" style="stop-color:rgb(0%,46.27451%,20.784314%);stop-opacity:1;"/>
</linearGradient>
</defs>
<g id="surface1">
<path style=" stroke:none;fill-rule:nonzero;fill:rgb(100%,100%,100%);fill-opacity:1;" d="M 28 17 C 28 24.730469 21.730469 31 14 31 C 6.269531 31 0 24.730469 0 17 C 0 9.269531 6.269531 3 14 3 C 21.730469 3 28 9.269531 28 17 Z M 28 17 "/>
<path style=" stroke:none;fill-rule:evenodd;fill:rgb(32.54902%,20%,74.509804%);fill-opacity:1;" d="M 14 31 C 21.730469 31 28 24.730469 28 17 C 28 9.269531 21.730469 3 14 3 C 6.269531 3 0 9.269531 0 17 C 0 24.730469 6.269531 31 14 31 Z M 14 25.855469 C 18.890625 25.855469 22.855469 21.890625 22.855469 17 C 22.855469 12.109375 18.890625 8.144531 14 8.144531 C 9.109375 8.144531 5.144531 12.109375 5.144531 17 C 5.144531 21.890625 9.109375 25.855469 14 25.855469 Z M 14 25.855469 "/>
<path style=" stroke:none;fill-rule:nonzero;fill:url(#linear0);" d="M 18.285156 17 C 18.285156 19.367188 16.367188 21.285156 14 21.285156 C 11.632812 21.285156 9.714844 19.367188 9.714844 17 C 9.714844 14.632812 11.632812 12.714844 14 12.714844 C 16.367188 12.714844 18.285156 14.632812 18.285156 17 Z M 18.285156 17 "/>
<path style=" stroke:none;fill-rule:nonzero;fill:rgb(32.54902%,20%,74.509804%);fill-opacity:1;" d="M 46.085938 22.613281 C 46.5 22.613281 46.878906 22.570312 47.222656 22.484375 C 47.566406 22.398438 47.925781 22.289062 48.300781 22.15625 L 48.300781 25.496094 C 47.800781 25.714844 47.269531 25.890625 46.707031 26.023438 C 46.152344 26.164062 45.441406 26.234375 44.574219 26.234375 C 43.714844 26.234375 42.957031 26.101562 42.300781 25.835938 C 41.644531 25.5625 41.132812 25.09375 40.765625 24.429688 C 40.40625 23.757812 40.226562 22.824219 40.226562 21.628906 L 40.226562 16.15625 L 38.621094 16.15625 L 38.621094 14.292969 L 40.660156 12.851562 L 41.84375 10.0625 L 44.84375 10.0625 L 44.84375 12.722656 L 48.101562 12.722656 L 48.101562 16.15625 L 44.84375 16.15625 L 44.84375 21.324219 C 44.84375 21.753906 44.953125 22.078125 45.171875 22.296875 C 45.390625 22.507812 45.695312 22.613281 46.085938 22.613281 Z M 57.101562 12.488281 C 58.78125 12.488281 60.09375 12.90625 61.039062 13.742188 C 61.984375 14.570312 62.457031 15.753906 62.457031 17.292969 L 62.457031 26 L 59.28125 26 L 58.402344 24.242188 L 58.308594 24.242188 C 57.933594 24.710938 57.546875 25.09375 57.148438 25.390625 C 56.757812 25.679688 56.308594 25.890625 55.800781 26.023438 C 55.292969 26.164062 54.671875 26.234375 53.9375 26.234375 C 53.171875 26.234375 52.484375 26.078125 51.875 25.765625 C 51.265625 25.453125 50.785156 24.980469 50.433594 24.347656 C 50.082031 23.714844 49.90625 22.914062 49.90625 21.945312 C 49.90625 20.523438 50.398438 19.46875 51.382812 18.78125 C 52.367188 18.09375 53.792969 17.707031 55.660156 17.621094 L 57.875 17.550781 L 57.875 17.363281 C 57.875 16.769531 57.726562 16.347656 57.429688 16.097656 C 57.140625 15.847656 56.75 15.722656 56.257812 15.722656 C 55.734375 15.722656 55.148438 15.816406 54.5 16.003906 C 53.859375 16.183594 53.214844 16.417969 52.566406 16.707031 L 51.242188 13.683594 C 52.007812 13.292969 52.875 12.996094 53.84375 12.792969 C 54.8125 12.589844 55.898438 12.488281 57.101562 12.488281 Z M 57.898438 20.070312 L 56.84375 20.117188 C 56 20.148438 55.40625 20.296875 55.0625 20.5625 C 54.726562 20.820312 54.558594 21.191406 54.558594 21.675781 C 54.558594 22.128906 54.679688 22.464844 54.921875 22.683594 C 55.164062 22.894531 55.484375 23 55.882812 23 C 56.4375 23 56.910156 22.824219 57.300781 22.472656 C 57.699219 22.121094 57.898438 21.664062 57.898438 21.101562 Z M 73.589844 12.488281 C 73.839844 12.488281 74.101562 12.507812 74.375 12.546875 C 74.648438 12.578125 74.851562 12.605469 74.984375 12.628906 L 74.574219 16.953125 C 74.425781 16.914062 74.234375 16.882812 74 16.859375 C 73.765625 16.828125 73.4375 16.8125 73.015625 16.8125 C 72.726562 16.8125 72.417969 16.839844 72.089844 16.894531 C 71.761719 16.949219 71.449219 17.066406 71.152344 17.246094 C 70.863281 17.417969 70.625 17.683594 70.4375 18.042969 C 70.25 18.394531 70.15625 18.871094 70.15625 19.472656 L 70.15625 26 L 65.574219 26 L 65.574219 12.722656 L 68.984375 12.722656 L 69.699219 14.84375 L 69.921875 14.84375 C 70.164062 14.40625 70.472656 14.011719 70.847656 13.660156 C 71.230469 13.300781 71.65625 13.015625 72.125 12.804688 C 72.601562 12.59375 73.089844 12.488281 73.589844 12.488281 Z M 81.382812 31.765625 C 79.5 31.765625 78.046875 31.449219 77.023438 30.816406 C 76.007812 30.191406 75.5 29.289062 75.5 28.109375 C 75.5 27.320312 75.746094 26.667969 76.238281 26.152344 C 76.730469 25.636719 77.46875 25.265625 78.453125 25.039062 C 78.046875 24.867188 77.691406 24.589844 77.386719 24.207031 C 77.089844 23.824219 76.941406 23.445312 76.941406 23.070312 C 76.941406 22.65625 77.054688 22.292969 77.28125 21.980469 C 77.507812 21.660156 77.980469 21.28125 78.699219 20.84375 C 78.011719 20.539062 77.46875 20.0625 77.070312 19.414062 C 76.679688 18.765625 76.484375 17.976562 76.484375 17.046875 C 76.484375 16.085938 76.703125 15.265625 77.140625 14.585938 C 77.585938 13.90625 78.230469 13.386719 79.074219 13.027344 C 79.925781 12.667969 80.960938 12.488281 82.179688 12.488281 C 82.34375 12.488281 82.59375 12.503906 82.929688 12.535156 C 83.265625 12.558594 83.605469 12.589844 83.949219 12.628906 C 84.292969 12.660156 84.558594 12.691406 84.746094 12.722656 L 89.375 12.722656 L 89.375 14.9375 L 87.558594 15.605469 C 87.683594 15.832031 87.777344 16.078125 87.839844 16.34375 C 87.902344 16.609375 87.933594 16.890625 87.933594 17.1875 C 87.933594 18.617188 87.429688 19.726562 86.421875 20.515625 C 85.421875 21.304688 83.925781 21.699219 81.933594 21.699219 C 81.441406 21.699219 81.050781 21.667969 80.761719 21.605469 C 80.707031 21.707031 80.664062 21.808594 80.632812 21.910156 C 80.609375 22.003906 80.597656 22.09375 80.597656 22.179688 C 80.597656 22.359375 80.703125 22.503906 80.914062 22.613281 C 81.132812 22.714844 81.394531 22.785156 81.699219 22.824219 C 82.011719 22.863281 82.308594 22.882812 82.589844 22.882812 L 84.792969 22.882812 C 86.285156 22.882812 87.402344 23.195312 88.144531 23.820312 C 88.886719 24.445312 89.257812 25.386719 89.257812 26.644531 C 89.257812 28.261719 88.566406 29.519531 87.183594 30.417969 C 85.808594 31.316406 83.875 31.765625 81.382812 31.765625 Z M 81.605469 28.90625 C 82.160156 28.90625 82.71875 28.855469 83.28125 28.753906 C 83.84375 28.660156 84.316406 28.503906 84.699219 28.285156 C 85.082031 28.066406 85.273438 27.777344 85.273438 27.417969 C 85.273438 27.144531 85.160156 26.9375 84.933594 26.796875 C 84.707031 26.664062 84.414062 26.574219 84.054688 26.527344 C 83.695312 26.480469 83.316406 26.457031 82.917969 26.457031 L 81.136719 26.457031 C 80.808594 26.457031 80.507812 26.507812 80.234375 26.609375 C 79.96875 26.71875 79.757812 26.863281 79.601562 27.042969 C 79.445312 27.222656 79.367188 27.425781 79.367188 27.652344 C 79.367188 28.027344 79.570312 28.328125 79.976562 28.554688 C 80.382812 28.789062 80.925781 28.90625 81.605469 28.90625 Z M 82.226562 19.109375 C 82.664062 19.109375 83 18.941406 83.234375 18.605469 C 83.476562 18.269531 83.597656 17.765625 83.597656 17.09375 C 83.597656 16.40625 83.484375 15.890625 83.257812 15.546875 C 83.03125 15.203125 82.6875 15.03125 82.226562 15.03125 C 81.75 15.03125 81.394531 15.203125 81.160156 15.546875 C 80.925781 15.882812 80.808594 16.390625 80.808594 17.070312 C 80.808594 17.75 80.925781 18.261719 81.160156 18.605469 C 81.394531 18.941406 81.75 19.109375 82.226562 19.109375 Z M 97.378906 12.488281 C 98.667969 12.488281 99.78125 12.714844 100.71875 13.167969 C 101.65625 13.613281 102.378906 14.285156 102.886719 15.183594 C 103.394531 16.082031 103.648438 17.207031 103.648438 18.558594 L 103.648438 20.597656 L 95.457031 20.597656 C 95.496094 21.292969 95.753906 21.863281 96.230469 22.308594 C 96.714844 22.753906 97.425781 22.976562 98.363281 22.976562 C 99.191406 22.976562 99.949219 22.894531 100.636719 22.730469 C 101.332031 22.566406 102.046875 22.3125 102.78125 21.96875 L 102.78125 25.261719 C 102.140625 25.597656 101.441406 25.84375 100.683594 26 C 99.925781 26.15625 98.96875 26.234375 97.8125 26.234375 C 96.476562 26.234375 95.28125 25.996094 94.226562 25.519531 C 93.171875 25.042969 92.339844 24.304688 91.730469 23.304688 C 91.128906 22.304688 90.828125 21.019531 90.828125 19.449219 C 90.828125 17.855469 91.101562 16.546875 91.648438 15.523438 C 92.195312 14.492188 92.960938 13.730469 93.945312 13.238281 C 94.929688 12.738281 96.074219 12.488281 97.378906 12.488281 Z M 97.542969 15.605469 C 97.003906 15.605469 96.550781 15.777344 96.183594 16.121094 C 95.824219 16.457031 95.613281 16.988281 95.550781 17.714844 L 99.488281 17.714844 C 99.480469 17.324219 99.402344 16.96875 99.253906 16.648438 C 99.105469 16.328125 98.886719 16.074219 98.597656 15.886719 C 98.316406 15.699219 97.964844 15.605469 97.542969 15.605469 Z M 122.445312 12.488281 C 123.960938 12.488281 125.117188 12.875 125.914062 13.648438 C 126.71875 14.421875 127.121094 15.660156 127.121094 17.363281 L 127.121094 26 L 122.539062 26 L 122.539062 18.78125 C 122.539062 17.773438 122.402344 17.074219 122.128906 16.683594 C 121.863281 16.285156 121.464844 16.085938 120.933594 16.085938 C 120.191406 16.085938 119.675781 16.410156 119.386719 17.058594 C 119.105469 17.707031 118.964844 18.625 118.964844 19.8125 L 118.964844 26 L 114.371094 26 L 114.371094 18.78125 C 114.371094 18.140625 114.3125 17.625 114.195312 17.234375 C 114.085938 16.835938 113.917969 16.546875 113.691406 16.367188 C 113.464844 16.179688 113.179688 16.085938 112.835938 16.085938 C 112.3125 16.085938 111.902344 16.246094 111.605469 16.566406 C 111.316406 16.878906 111.113281 17.339844 110.996094 17.949219 C 110.878906 18.558594 110.820312 19.304688 110.820312 20.1875 L 110.820312 26 L 106.238281 26 L 106.238281 12.722656 L 109.695312 12.722656 L 110.363281 14.363281 L 110.492188 14.363281 C 110.726562 14.003906 111.027344 13.683594 111.394531 13.402344 C 111.769531 13.121094 112.210938 12.898438 112.71875 12.734375 C 113.234375 12.570312 113.820312 12.488281 114.476562 12.488281 C 115.453125 12.488281 116.257812 12.652344 116.890625 12.980469 C 117.523438 13.308594 118.039062 13.761719 118.4375 14.339844 L 118.578125 14.339844 C 119 13.746094 119.542969 13.289062 120.207031 12.96875 C 120.871094 12.648438 121.617188 12.488281 122.445312 12.488281 Z M 128.632812 12.722656 L 133.460938 12.722656 L 135.710938 20.339844 C 135.742188 20.449219 135.773438 20.585938 135.804688 20.75 C 135.835938 20.90625 135.863281 21.074219 135.886719 21.253906 C 135.910156 21.433594 135.925781 21.609375 135.933594 21.78125 L 136.027344 21.78125 C 136.066406 21.460938 136.109375 21.183594 136.15625 20.949219 C 136.210938 20.707031 136.261719 20.511719 136.308594 20.363281 L 138.617188 12.722656 L 143.292969 12.722656 L 138.042969 26.84375 C 137.636719 27.921875 137.164062 28.824219 136.625 29.550781 C 136.09375 30.285156 135.433594 30.835938 134.644531 31.203125 C 133.863281 31.578125 132.890625 31.765625 131.726562 31.765625 C 131.304688 31.765625 130.941406 31.742188 130.636719 31.695312 C 130.339844 31.65625 130.078125 31.613281 129.851562 31.566406 L 129.851562 27.96875 C 130.023438 28 130.234375 28.03125 130.484375 28.0625 C 130.734375 28.09375 130.996094 28.109375 131.269531 28.109375 C 131.777344 28.109375 132.1875 28.007812 132.5 27.804688 C 132.820312 27.601562 133.082031 27.332031 133.285156 26.996094 C 133.488281 26.667969 133.664062 26.3125 133.8125 25.929688 L 133.859375 25.8125 Z M 128.632812 12.722656 "/>
</g>
</svg>
