<svg xmlns="http://www.w3.org/2000/svg" width="34" height="34" viewBox="0 0 34 34">
    <path fill="#E9E9E9" fill-rule="evenodd" d="M7 27.032C9.606 29.492 13.129 31 17.006 31c1.847-.006 3.496-.354 4.899-.84 1.916-.683 3.647-1.753 5.095-3.116l-2.96-.377c-.7-.078-1.48-.465-1.947-1.006l-.545-.542-2.57-1.006 1.558-.774c.623-.31 1.168-1.006 1.402-1.625l.623-2.089c1.479 0 2.258-.851 2.258-2.554 0-1.547-.701-2.398-1.636-2.398 0-1.238.623-2.863.623-4.488 0-3.637-2.57-5.185-8.409-5.185-1.869 0-2.725.929-2.725 3.095-1.558 0-2.57.774-2.57 2.09 0 1.625.623 3.25.623 4.488-.934 0-1.635.85-1.635 2.398 0 1.78.623 2.554 2.258 2.554l.623 2.09c.234.618.779 1.315 1.402 1.624l1.557.774-2.57 1.006-.545.542c-.467.541-1.246.928-1.946 1.006L7 27.032zM17 34C7.611 34 0 26.389 0 17S7.611 0 17 0s17 7.611 17 17-7.611 17-17 17z"/>
</svg>
